<svg xmlns="http://www.w3.org/2000/svg" width="512" height="512" fill="none" viewBox="0 0 512 512"><path fill="#FFCC4D" d="M512 256C512 397.383 397.383 512 256 512C114.631 512 0 397.383 0 256C0 114.631 114.631 0 256 0C397.383 0 512 114.631 512 256Z"/><path fill="#3D382F" d="M99.5556 302.407C99.5556 358.784 164.921 430.407 256 430.407C347.079 430.407 412.444 359.296 412.444 302.407C412.444 302.407 265.486 341.604 99.5556 302.407Z"/><path fill="#5D9040" d="M170.667 327.154V426.155C170.667 468.821 199.111 511.488 256 511.488C312.889 511.488 341.333 468.821 341.333 426.155V327.737C251.861 346.112 170.667 327.154 170.667 327.154Z"/><path fill="#3D382F" d="M174.706 175.36C163.954 171.207 153.785 167.282 153.785 161.593C153.785 152.22 166.357 151.737 168.875 151.737C177.764 151.737 182.187 155.065 186.084 158.009C189.07 160.27 192.171 162.603 196.48 162.603C204.501 162.603 208.156 156.956 208.156 151.708C208.156 141.241 195.328 133.845 181.732 130.745V125.156C181.732 117.788 175.744 111.801 168.377 111.801C161.01 111.801 155.022 117.788 155.022 125.156V131.214C138.752 135.95 128.782 147.911 128.782 163.001C128.782 181.646 147.172 189.298 163.399 196.039C175.019 200.875 185.998 205.44 185.998 212.565C185.998 217.771 179.456 223.403 168.889 223.403C158.222 223.403 152.107 219.136 146.702 215.381C142.976 212.779 139.449 210.318 135.239 210.318C129.124 210.318 124.345 215.467 124.345 222.037C124.345 231.694 137.586 241.323 155.022 244.708V251.392C155.022 258.759 161.01 264.732 168.377 264.732C175.744 264.732 181.732 258.745 181.732 251.392L181.66 244.309C200.092 239.829 210.987 226.93 210.987 209.337C211.001 189.369 190.876 181.604 174.706 175.36ZM379.648 209.579C379.648 189.611 359.524 181.845 343.353 175.602C332.601 171.449 322.446 167.524 322.446 161.835C322.446 152.462 335.019 151.979 337.536 151.979C346.425 151.979 350.834 155.307 354.745 158.251C357.746 160.512 360.832 162.844 365.127 162.844C373.163 162.844 376.818 157.198 376.818 151.95C376.818 141.468 363.989 134.087 350.393 130.987V125.412C350.393 118.044 344.391 112.057 337.038 112.057C329.671 112.057 323.669 118.044 323.669 125.412V131.47C307.413 136.206 297.429 148.167 297.429 163.257C297.429 181.902 315.819 189.554 332.046 196.295C343.666 201.131 354.645 205.696 354.645 212.821C354.645 218.027 348.117 223.659 337.55 223.659C326.884 223.659 320.768 219.392 315.378 215.637C311.637 213.035 308.11 210.574 303.915 210.574C297.785 210.574 293.006 215.723 293.006 222.293C293.006 231.95 306.247 241.579 323.669 244.964V251.648C323.669 259.001 329.685 264.988 337.052 264.988C344.42 264.988 350.393 259.001 350.393 251.648L350.35 244.565C368.768 240.057 379.648 227.172 379.648 209.579Z"/><path fill="#fff" d="M298.24 441.87C298.24 422.414 278.628 414.834 262.869 408.747C252.388 404.708 242.475 400.868 242.475 395.335C242.475 386.19 254.72 385.735 257.18 385.735C265.842 385.735 270.151 388.992 273.963 391.851C276.878 394.055 279.908 396.331 284.103 396.331C291.925 396.331 295.495 390.812 295.495 385.707C295.495 375.509 282.994 368.299 269.724 365.269V359.822C269.724 352.64 263.879 346.795 256.697 346.795C249.515 346.795 243.669 352.64 243.669 359.822V365.724C227.812 370.332 218.084 382.009 218.084 396.715C218.084 414.891 236.018 422.357 251.833 428.928C263.168 433.636 273.863 438.087 273.863 445.028C273.863 450.105 267.492 455.595 257.18 455.595C246.784 455.595 240.825 451.442 235.563 447.758C231.936 445.227 228.494 442.823 224.398 442.823C218.439 442.823 213.76 447.858 213.76 454.258C213.76 463.687 226.66 473.06 243.655 476.359V482.887C243.655 490.055 249.5 495.886 256.697 495.886C263.879 495.886 269.71 490.055 269.71 482.887L269.668 475.975C287.63 471.58 298.24 459.008 298.24 441.87Z"/></svg>